<mxfile host="app.diagrams.net" agent="Mozilla/5.0 (Macintosh; Intel Mac OS X 10.15; rv:130.0) Gecko/20100101 Firefox/130.0" version="24.7.16">
  <diagram name="Page-1" id="jioV6jJHKiql1ZwDU229">
    <mxGraphModel dx="1026" dy="688" grid="1" gridSize="10" guides="1" tooltips="1" connect="1" arrows="1" fold="1" page="1" pageScale="1" pageWidth="850" pageHeight="1100" math="0" shadow="0">
      <root>
        <mxCell id="0" />
        <mxCell id="1" parent="0" />
        <mxCell id="Pl_YBJRuOwNsfhyN2GZl-13" value="Actor" style="shape=umlActor;verticalLabelPosition=bottom;verticalAlign=top;html=1;outlineConnect=0;" vertex="1" parent="1">
          <mxGeometry x="30" y="110" width="80" height="160" as="geometry" />
        </mxCell>
        <mxCell id="Pl_YBJRuOwNsfhyN2GZl-17" value="" style="rounded=0;whiteSpace=wrap;html=1;" vertex="1" parent="1">
          <mxGeometry x="280" y="80" width="480" height="630" as="geometry" />
        </mxCell>
        <mxCell id="Pl_YBJRuOwNsfhyN2GZl-18" value="System" style="text;html=1;align=center;verticalAlign=middle;whiteSpace=wrap;rounded=0;" vertex="1" parent="1">
          <mxGeometry x="490" y="90" width="60" height="30" as="geometry" />
        </mxCell>
        <mxCell id="Pl_YBJRuOwNsfhyN2GZl-23" value="" style="edgeStyle=orthogonalEdgeStyle;rounded=0;orthogonalLoop=1;jettySize=auto;html=1;" edge="1" parent="1" source="Pl_YBJRuOwNsfhyN2GZl-19" target="Pl_YBJRuOwNsfhyN2GZl-22">
          <mxGeometry relative="1" as="geometry" />
        </mxCell>
        <mxCell id="Pl_YBJRuOwNsfhyN2GZl-19" value="Handle Throw" style="ellipse;whiteSpace=wrap;html=1;" vertex="1" parent="1">
          <mxGeometry x="340" y="140" width="120" height="80" as="geometry" />
        </mxCell>
        <mxCell id="Pl_YBJRuOwNsfhyN2GZl-20" value="" style="endArrow=classic;html=1;rounded=0;entryX=0;entryY=0.5;entryDx=0;entryDy=0;" edge="1" parent="1" target="Pl_YBJRuOwNsfhyN2GZl-19">
          <mxGeometry width="50" height="50" relative="1" as="geometry">
            <mxPoint x="120" y="180" as="sourcePoint" />
            <mxPoint x="450" y="380" as="targetPoint" />
          </mxGeometry>
        </mxCell>
        <mxCell id="Pl_YBJRuOwNsfhyN2GZl-21" value="User &quot;throws&quot; device" style="edgeLabel;html=1;align=center;verticalAlign=middle;resizable=0;points=[];" vertex="1" connectable="0" parent="Pl_YBJRuOwNsfhyN2GZl-20">
          <mxGeometry x="-0.0727" y="1" relative="1" as="geometry">
            <mxPoint as="offset" />
          </mxGeometry>
        </mxCell>
        <mxCell id="Pl_YBJRuOwNsfhyN2GZl-29" value="" style="edgeStyle=orthogonalEdgeStyle;rounded=0;orthogonalLoop=1;jettySize=auto;html=1;" edge="1" parent="1" source="Pl_YBJRuOwNsfhyN2GZl-22" target="Pl_YBJRuOwNsfhyN2GZl-28">
          <mxGeometry relative="1" as="geometry" />
        </mxCell>
        <mxCell id="Pl_YBJRuOwNsfhyN2GZl-22" value="Calculate Force" style="ellipse;whiteSpace=wrap;html=1;" vertex="1" parent="1">
          <mxGeometry x="590" y="140" width="120" height="80" as="geometry" />
        </mxCell>
        <mxCell id="Pl_YBJRuOwNsfhyN2GZl-31" value="" style="edgeStyle=orthogonalEdgeStyle;rounded=0;orthogonalLoop=1;jettySize=auto;html=1;" edge="1" parent="1" source="Pl_YBJRuOwNsfhyN2GZl-28" target="Pl_YBJRuOwNsfhyN2GZl-30">
          <mxGeometry relative="1" as="geometry" />
        </mxCell>
        <mxCell id="Pl_YBJRuOwNsfhyN2GZl-28" value="Display force" style="ellipse;whiteSpace=wrap;html=1;" vertex="1" parent="1">
          <mxGeometry x="590" y="300" width="120" height="80" as="geometry" />
        </mxCell>
        <mxCell id="Pl_YBJRuOwNsfhyN2GZl-33" value="" style="edgeStyle=orthogonalEdgeStyle;rounded=0;orthogonalLoop=1;jettySize=auto;html=1;" edge="1" parent="1" source="Pl_YBJRuOwNsfhyN2GZl-30" target="Pl_YBJRuOwNsfhyN2GZl-32">
          <mxGeometry relative="1" as="geometry" />
        </mxCell>
        <mxCell id="Pl_YBJRuOwNsfhyN2GZl-34" value="Yes" style="edgeLabel;html=1;align=center;verticalAlign=middle;resizable=0;points=[];" vertex="1" connectable="0" parent="Pl_YBJRuOwNsfhyN2GZl-33">
          <mxGeometry x="0.05" y="5" relative="1" as="geometry">
            <mxPoint as="offset" />
          </mxGeometry>
        </mxCell>
        <mxCell id="Pl_YBJRuOwNsfhyN2GZl-36" value="No" style="edgeStyle=orthogonalEdgeStyle;rounded=0;orthogonalLoop=1;jettySize=auto;html=1;" edge="1" parent="1" source="Pl_YBJRuOwNsfhyN2GZl-30" target="Pl_YBJRuOwNsfhyN2GZl-35">
          <mxGeometry relative="1" as="geometry" />
        </mxCell>
        <mxCell id="Pl_YBJRuOwNsfhyN2GZl-30" value="High score?" style="rhombus;whiteSpace=wrap;html=1;" vertex="1" parent="1">
          <mxGeometry x="410" y="300" width="80" height="80" as="geometry" />
        </mxCell>
        <mxCell id="Pl_YBJRuOwNsfhyN2GZl-38" value="" style="edgeStyle=orthogonalEdgeStyle;rounded=0;orthogonalLoop=1;jettySize=auto;html=1;" edge="1" parent="1" source="Pl_YBJRuOwNsfhyN2GZl-32" target="Pl_YBJRuOwNsfhyN2GZl-37">
          <mxGeometry relative="1" as="geometry" />
        </mxCell>
        <mxCell id="Pl_YBJRuOwNsfhyN2GZl-32" value="Display new high score" style="ellipse;whiteSpace=wrap;html=1;" vertex="1" parent="1">
          <mxGeometry x="490" y="440" width="80" height="80" as="geometry" />
        </mxCell>
        <mxCell id="Pl_YBJRuOwNsfhyN2GZl-41" value="" style="edgeStyle=orthogonalEdgeStyle;rounded=0;orthogonalLoop=1;jettySize=auto;html=1;" edge="1" parent="1" source="Pl_YBJRuOwNsfhyN2GZl-35">
          <mxGeometry relative="1" as="geometry">
            <mxPoint x="160" y="550" as="targetPoint" />
          </mxGeometry>
        </mxCell>
        <mxCell id="Pl_YBJRuOwNsfhyN2GZl-35" value="Adjust screen accordingly" style="ellipse;whiteSpace=wrap;html=1;" vertex="1" parent="1">
          <mxGeometry x="320" y="510" width="80" height="80" as="geometry" />
        </mxCell>
        <mxCell id="Pl_YBJRuOwNsfhyN2GZl-37" value="Flash lights and play sounds" style="ellipse;whiteSpace=wrap;html=1;" vertex="1" parent="1">
          <mxGeometry x="490" y="600" width="80" height="80" as="geometry" />
        </mxCell>
        <mxCell id="Pl_YBJRuOwNsfhyN2GZl-39" value="" style="endArrow=classic;html=1;rounded=0;entryX=0.5;entryY=1;entryDx=0;entryDy=0;exitX=0;exitY=0.5;exitDx=0;exitDy=0;" edge="1" parent="1" source="Pl_YBJRuOwNsfhyN2GZl-37" target="Pl_YBJRuOwNsfhyN2GZl-35">
          <mxGeometry width="50" height="50" relative="1" as="geometry">
            <mxPoint x="510" y="480" as="sourcePoint" />
            <mxPoint x="560" y="430" as="targetPoint" />
            <Array as="points">
              <mxPoint x="360" y="640" />
            </Array>
          </mxGeometry>
        </mxCell>
      </root>
    </mxGraphModel>
  </diagram>
</mxfile>
